<svg xmlns="http://www.w3.org/2000/svg" width="1em" height="1em" viewBox="0 0 640 640"><path fill="currentColor" d="M135.9 98.8c-21.7 12.9-64.5 62-64.9 74.9V195c0 27.1 25.3 50.8 48.2 50.8c27.6 0 50.5-22.8 50.5-50c0 27.1 22.2 50 49.8 50s49-22.8 49-50c0 27.1 23.6 50 51.2 50h.5c27.6 0 51.2-22.8 51.2-50c0 27.1 21.5 50 49 50s49.8-22.8 49.8-50c0 27.1 23 50 50.5 50c23 0 48.3-23.8 48.3-50.8v-21.3c-.4-12.9-43.2-62.1-64.9-75c-67.4-2.3-114.2-2.7-184-2.7s-165 1.1-184.2 2.8m132.3 134.4c-22 38.4-77.9 38.7-99.8.2c-13.2 23.1-43.2 32.1-56 27.7c-3.9 40.2-13.7 237.1 17.7 269.2c80 18.7 302.1 18.1 379.8 0c31.6-32.3 21.3-232 17.7-269.2c-12.9 4.4-42.9-4.6-56-27.7c-22 38.5-77.8 38.1-99.8-.2c-7.1 12.5-23 28.9-51.8 28.9c-10.4.3-20.8-2.2-29.9-7.3s-16.7-12.6-21.9-21.6M226.6 287c16.5 0 31.1 0 49.2 19.8c29.3-3 58.9-3 88.2 0c18.2-19.7 32.8-19.7 49.2-19.7c52.3 0 65.2 77.5 83.9 144.4c17.3 62.2-5.5 63.7-34 63.7c-42.1-1.6-65.5-32.2-65.5-62.8c-39.3 6.4-101.9 8.8-155.6 0c0 30.6-23.3 61.2-65.5 62.8c-28.4-.1-51.2-1.6-33.9-63.7c18.7-67 31.6-144.4 83.9-144.4v-.1zm93.4 47.8s-44.4 40.8-52.4 55.2l29-1.2v25.3c0 1.5 21.3.2 23.3.2c11.6.5 23.3 1 23.3-.2v-25.3l29 1.2c-8-14.5-52.4-55.2-52.4-55.2h.1z"/></svg>
